<svg xmlns="http://www.w3.org/2000/svg" viewBox="0 0 32 32"><g id="exchange"><path d="M21,21a8,8,0,1,0-7.79-9.85.85.85,0,0,0,0,.16,8,8,0,1,0,5.62,9.38A7.9,7.9,0,0,0,21,21Zm-5.84-9.38a6,6,0,1,1,3.83,7A8,8,0,0,0,14.92,12,1,1,0,0,0,15.15,11.62ZM11,25a6,6,0,1,1,6-6A6,6,0,0,1,11,25Z"/><path d="M4,12a1,1,0,0,0,1-1V8.81A.81.81,0,0,1,5.81,8H8.59l-.3.29a1,1,0,0,0,0,1.42,1,1,0,0,0,1.42,0l2-2a1,1,0,0,0,0-1.42l-2-2A1,1,0,0,0,8.29,5.71l.3.29H5.81A2.81,2.81,0,0,0,3,8.81V11A1,1,0,0,0,4,12Z"/><path d="M28,20a1,1,0,0,0-1,1v2.19a.81.81,0,0,1-.81.81H23.41l.3-.29a1,1,0,0,0-1.42-1.42l-2,2a1,1,0,0,0,0,1.42l2,2a1,1,0,0,0,1.42,0,1,1,0,0,0,0-1.42l-.3-.29h2.78A2.81,2.81,0,0,0,29,23.19V21A1,1,0,0,0,28,20Z"/><path d="M11.83,15.45a1,1,0,0,0-1.66,0l-2,3a1,1,0,0,0,0,1.1l2,3a1,1,0,0,0,1.66,0l2-3a1,1,0,0,0,0-1.1ZM11,20.2,10.2,19l.8-1.2.8,1.2Z"/></g></svg>