<?xml version="1.0" encoding="UTF-8"?><svg xmlns="http://www.w3.org/2000/svg" viewBox="0 0 24 24"><defs><style>.v{fill:#231f20;}</style></defs><g id="a"/><g id="b"><g><path class="v" d="M21.07,10.29c-1.42-1.51-4.48-4.04-9.08-4.04s-7.62,2.5-9.03,3.99c-.95,1-.95,2.52,0,3.53h0c1.41,1.49,4.47,3.99,9.03,3.99s7.66-2.53,9.08-4.04c.92-.98,.92-2.45,0-3.43Zm-1.09,2.4c-1.25,1.33-3.95,3.56-7.98,3.56s-6.69-2.21-7.94-3.52c-.4-.42-.4-1.04,0-1.46,1.25-1.31,3.94-3.52,7.94-3.52s6.73,2.23,7.98,3.56c.37,.39,.37,.98,0,1.37Z"/><path class="v" d="M12,9.25c-1.52,0-2.75,1.23-2.75,2.75s1.23,2.75,2.75,2.75,2.75-1.23,2.75-2.75-1.23-2.75-2.75-2.75Zm0,4c-.69,0-1.25-.56-1.25-1.25s.56-1.25,1.25-1.25,1.25,.56,1.25,1.25-.56,1.25-1.25,1.25Z"/></g></g><g id="c"/><g id="d"/><g id="e"/><g id="f"/><g id="g"/><g id="h"/><g id="i"/><g id="j"/><g id="k"/><g id="l"/><g id="m"/><g id="n"/><g id="o"/><g id="p"/><g id="q"/><g id="r"/><g id="s"/><g id="t"/><g id="u"/></svg>