<?xml version="1.0" encoding="UTF-8"?>
<svg xmlns="http://www.w3.org/2000/svg" viewBox="0 0 24 24" fill="none">
    <g id="a" />
    <g id="b" />
    <g id="c" />
    <g id="d">
        <path class="v"
            d="M21.35,2.83c-.46-.53-1.17-.75-1.85-.58L4.41,6.1c-1.18,.3-2.01,1.23-2.19,2.43s.37,2.33,1.41,2.95l4.48,2.66c.06,.04,.11,.1,.14,.17l1.99,4.82c.46,1.12,1.5,1.82,2.72,1.82h0c1.21,0,2.25-.69,2.72-1.81l5.98-14.38c.27-.65,.15-1.39-.31-1.92ZM3.71,8.74c.09-.6,.49-1.04,1.07-1.19l14.13-3.6L8.73,12.76l-4.33-2.57c-.52-.31-.78-.85-.69-1.45Zm10.59,9.81c-.23,.56-.73,.89-1.33,.89h0c-.6,0-1.1-.33-1.33-.89l-1.92-4.65L19.9,5.08l-5.6,13.47Z" />
    </g>
    <g id="e" />
    <g id="f" />
    <g id="g" />
    <g id="h" />
    <g id="i" />
    <g id="j" />
    <g id="k" />
    <g id="l" />
    <g id="m" />
    <g id="n" />
    <g id="o" />
    <g id="p" />
    <g id="q" />
    <g id="r" />
    <g id="s" />
    <g id="t" />
    <g id="u" />
</svg>
