<?xml version="1.0" encoding="UTF-8"?><svg xmlns="http://www.w3.org/2000/svg" viewBox="0 0 24 24"><defs><style>.v{fill:#231f20;}</style></defs><g id="a"/><g id="b"/><g id="c"/><g id="d"/><g id="e"/><g id="f"/><g id="g"/><g id="h"/><g id="i"/><g id="j"><g><path class="v" d="M20.36,6.3l-2.66-2.66c-.88-.88-2.11-1.39-3.36-1.39h-4.69c-1.25,0-2.47,.51-3.36,1.39l-2.66,2.66c-.9,.9-1.39,2.09-1.39,3.36v4.69c0,1.27,.49,2.46,1.39,3.36l2.66,2.66c.88,.88,2.11,1.39,3.36,1.39h4.69c1.25,0,2.47-.51,3.36-1.39l2.66-2.66c.9-.9,1.39-2.09,1.39-3.36v-4.69c0-1.27-.49-2.46-1.39-3.36Zm-.11,8.04c0,.87-.34,1.68-.95,2.3l-2.66,2.66c-.6,.61-1.44,.95-2.3,.95h-4.69c-.85,0-1.69-.35-2.3-.95l-2.66-2.66c-.61-.61-.95-1.43-.95-2.3v-4.69c0-.87,.34-1.68,.95-2.3l2.66-2.66c.6-.61,1.44-.95,2.3-.95h4.69c.85,0,1.69,.35,2.3,.95l2.66,2.66c.61,.61,.95,1.43,.95,2.3v4.69Z"/><path class="v" d="M12,7.25c-2.62,0-4.75,2.13-4.75,4.75s2.13,4.75,4.75,4.75,4.75-2.13,4.75-4.75-2.13-4.75-4.75-4.75Zm0,8c-1.79,0-3.25-1.46-3.25-3.25s1.46-3.25,3.25-3.25,3.25,1.46,3.25,3.25-1.46,3.25-3.25,3.25Z"/></g></g><g id="k"/><g id="l"/><g id="m"/><g id="n"/><g id="o"/><g id="p"/><g id="q"/><g id="r"/><g id="s"/><g id="t"/><g id="u"/></svg>