<?xml version="1.0" encoding="UTF-8"?>
<svg xmlns="http://www.w3.org/2000/svg" fill="none" viewBox="0 0 24 24">
    <g id="a" />
    <g id="b" />
    <g id="c" />
    <g id="d" />
    <g id="e" />
    <g id="f" />
    <g id="g" />
    <g id="h" />
    <g id="i" />
    <g id="j" />
    <g id="k" />
    <g id="l" />
    <g id="m" />
    <g id="n" />
    <g id="o">
        <g>
            <path
                d="M21,3.25H5c-1.52,0-2.75,1.23-2.75,2.75v12c0,1.52,1.23,2.75,2.75,2.75h13c1.52,0,2.75-1.23,2.75-2.75V10c0-1.52-1.23-2.75-2.75-2.75H5c-.69,0-1.25-.56-1.25-1.25s.56-1.25,1.25-1.25H21c.41,0,.75-.34,.75-.75s-.34-.75-.75-.75ZM5,8.75h13c.69,0,1.25,.56,1.25,1.25v8c0,.69-.56,1.25-1.25,1.25H5c-.69,0-1.25-.56-1.25-1.25V8.45c.38,.19,.8,.3,1.25,.3Z" />
            <path
                d="M17.02,14.75c.41,0,.75-.34,.75-.75s-.34-.75-.75-.75h-.01c-.41,0-.74,.34-.74,.75s.34,.75,.75,.75Z" />
        </g>
    </g>
    <g id="p" />
    <g id="q" />
    <g id="r" />
    <g id="s" />
    <g id="t" />
    <g id="u" />
</svg>
