<?xml version="1.0" encoding="UTF-8"?>
<svg xmlns="http://www.w3.org/2000/svg" viewBox="0 0 24 24" fill="none">
    <g id="a" />
    <g id="b">
        <path class="v"
            d="M19,7.25h-.8l-5.5-3.14c-1.07-.61-2.43-.43-3.31,.44l-2.7,2.7h-.69c-1.52,0-2.75,1.23-2.75,2.75v1.25h-.25c-.41,0-.75,.34-.75,.75v3c0,.41,.34,.75,.75,.75h.25v1.25c0,1.52,1.23,2.75,2.75,2.75h13c1.52,0,2.75-1.23,2.75-2.75v-7c0-1.52-1.23-2.75-2.75-2.75Zm-8.55-1.64c.4-.4,1.02-.48,1.5-.2l3.22,1.84h-6.37l1.64-1.64ZM3.75,14.25v-1.5h2.5v1.5H3.75Zm16.5,2.75c0,.69-.56,1.25-1.25,1.25H6c-.69,0-1.25-.56-1.25-1.25v-1.25h1.75c.69,0,1.25-.56,1.25-1.25v-2c0-.69-.56-1.25-1.25-1.25h-1.75v-1.25c0-.69,.56-1.25,1.25-1.25h13c.69,0,1.25,.56,1.25,1.25v7Z" />
    </g>
    <g id="c" />
    <g id="d" />
    <g id="e" />
    <g id="f" />
    <g id="g" />
    <g id="h" />
    <g id="i" />
    <g id="j" />
    <g id="k" />
    <g id="l" />
    <g id="m" />
    <g id="n" />
    <g id="o" />
    <g id="p" />
    <g id="q" />
    <g id="r" />
    <g id="s" />
    <g id="t" />
    <g id="u" />
</svg>
